<svg width="400" height="400" viewBox="0 0 400 400" fill="none" xmlns="http://www.w3.org/2000/svg">
<path d="M0 0H400V400H0V0Z" fill="#030712"/>
<path d="M242.719 235.496C242.003 230.626 241.072 226.688 239.926 223.68C238.923 220.529 237.419 218.094 235.414 216.375C233.552 214.656 230.974 213.51 227.68 212.938C224.529 212.221 220.518 211.863 215.648 211.863H180.199V265.574C180.199 269.871 180.414 273.38 180.844 276.102C181.417 278.823 182.491 281.043 184.066 282.762C185.785 284.337 188.077 285.483 190.941 286.199C193.949 286.772 197.816 287.202 202.543 287.488V292H134.008V287.488C138.591 287.202 142.243 286.701 144.965 285.984C147.829 285.268 149.978 284.051 151.41 282.332C152.986 280.47 153.988 278.035 154.418 275.027C154.991 271.876 155.277 267.723 155.277 262.566V156.434C155.277 152.137 154.991 148.628 154.418 145.906C153.988 143.185 152.986 141.036 151.41 139.461C149.835 137.885 147.615 136.74 144.75 136.023C142.029 135.307 138.448 134.806 134.008 134.52V129.578H264.203L264.633 164.812H258.832C257.686 159.227 256.397 154.786 254.965 151.492C253.533 148.055 251.456 145.405 248.734 143.543C246.156 141.681 242.647 140.464 238.207 139.891C233.91 139.318 228.324 139.031 221.449 139.031H188.148C184.711 139.031 182.491 139.533 181.488 140.535C180.629 141.538 180.199 143.829 180.199 147.41V201.766H215.648C220.518 201.766 224.529 201.479 227.68 200.906C230.974 200.333 233.552 199.188 235.414 197.469C237.419 195.75 238.923 193.387 239.926 190.379C241.072 187.371 242.003 183.432 242.719 178.562H248.52V235.496H242.719Z" fill="white"/>
</svg>
