<?xml version="1.0" standalone="no"?>
<!DOCTYPE svg PUBLIC "-//W3C//DTD SVG 20010904//EN"
 "http://www.w3.org/TR/2001/REC-SVG-20010904/DTD/svg10.dtd">
<svg version="1.0" xmlns="http://www.w3.org/2000/svg"
 width="318.000000pt" height="331.000000pt" viewBox="0 0 318.000000 331.000000"
 preserveAspectRatio="xMidYMid meet">
<metadata>
Created by potrace 1.16, written by Peter Selinger 2001-2019
</metadata>
<g transform="translate(0.000000,331.000000) scale(0.100000,-0.100000)"
fill="#ffffff" stroke="none">
<path d="M1854 3236 c-11 -28 3 -381 21 -554 l17 -152 -119 -113 c-214 -205
-238 -226 -253 -227 -8 0 -60 -34 -115 -76 -78 -59 -250 -183 -328 -235 -5 -4
11 -44 36 -90 25 -46 117 -227 205 -401 88 -174 167 -327 175 -338 15 -21 16
-20 26 32 59 307 138 711 162 830 16 80 29 154 29 163 0 18 27 54 303 398 87
109 160 204 163 211 6 16 -249 489 -293 544 -20 25 -22 25 -29 8z M1488 2928
c-271 -278 -372 -389 -631 -693 l-69 -80 6 -365 c5 -357 5 -367 30 -438 34
-97 381 -792 518 -1035 l50 -87 18 22 c9 13 49 73 87 133 75 119 169 264 268
415 34 52 67 104 73 116 19 37 455 1128 459 1151 4 19 -18 10 -174 -67 -99
-49 -184 -95 -190 -102 -5 -7 -103 -218 -216 -468 -167 -371 -210 -475 -232
-564 -15 -60 -30 -118 -34 -128 -7 -20 -59 36 -389 416 -62 72 -133 153 -158
179 -24 27 -52 60 -61 75 l-17 27 27 -24 c15 -14 29 -22 32 -19 4 3 28 91 55
194 27 104 55 213 63 242 l14 52 -99 121 c-55 67 -97 127 -94 134 5 15 325
393 353 418 18 16 15 -4 -28 -195 -68 -295 -100 -450 -96 -454 4 -4 169 107
348 234 49 35 89 68 89 74 0 10 -82 128 -220 316 l-53 73 24 27 c13 15 121
126 240 247 119 121 234 240 256 265 42 47 68 89 60 96 -2 3 -142 -136 -309
-308z M1802 3098 c-28 -76 -195 -593 -233 -721 -17 -59 -29 -110 -26 -113 9
-9 83 195 175 483 86 267 119 389 109 399 -3 3 -14 -19 -25 -48z M2185 2659
c-26 -69 -232 -699 -229 -699 3 0 32 14 65 31 33 16 108 48 167 69 59 22 112
46 118 55 28 38 19 -28 -43 -316 -35 -167 -82 -404 -103 -527 -21 -123 -40
-225 -42 -226 -1 -1 -59 -35 -128 -76 l-125 -75 174 -12 c129 -9 177 -10 182
-2 4 7 46 147 93 313 l86 302 7 311 6 312 -39 -5 -39 -5 33 15 c17 8 32 19 32
25 0 11 -197 512 -205 519 -2 3 -7 -1 -10 -9z m112 -461 c-3 -8 -6 -5 -6 6 -1
11 2 17 5 13 3 -3 4 -12 1 -19z m10 -40 c-3 -8 -6 -5 -6 6 -1 11 2 17 5 13 3
-3 4 -12 1 -19z M961 1614 c-34 -130 -61 -237 -59 -238 2 -1 80 -53 173 -116
94 -63 217 -142 274 -177 97 -59 128 -71 104 -41 -6 7 -66 121 -133 253 -68
132 -157 303 -197 380 -40 77 -76 147 -79 157 -3 10 -9 18 -13 18 -4 0 -35
-106 -70 -236z M1783 768 c-39 -62 -114 -175 -166 -250 -161 -233 -198 -299
-129 -236 15 14 78 62 141 108 63 45 164 121 226 169 62 47 165 124 228 171
106 77 135 105 123 117 -4 4 -124 16 -271 28 l-81 6 -71 -113z"/>
</g>
</svg>
